<svg xmlns="http://www.w3.org/2000/svg" viewBox="0 0 64 64" role="img" aria-label="Boda Starlin y Reneisy">
  <rect width="64" height="64" rx="16" fill="#F8F5F0"/>
  <path d="M32 16c-4.5-6.4-14.2-6.8-18.7 1.2-4.6 8.2 4.4 16.3 10.2 21.5 1.4 1.2 2.8 2.3 3.6 3.7.8-1.4 2.2-2.5 3.6-3.7 5.8-5.2 14.8-13.3 10.2-21.5C46.2 9.2 36.5 9.6 32 16Z" fill="#5A7A5C"/>
  <path d="M32 17.4c-3.1-3.8-8.5-4.6-11.7-.7-3.4 4-1.7 9.4 1.7 13.1 1.7 1.8 3.5 3.4 5 5.1 1.5-1.7 3.3-3.3 5-5.1 3.4-3.7 5.1-9.1 1.7-13.1-1.2-1.4-2.8-2.1-4.7-2.1Z" fill="#C9A84C"/>
  <path d="M22.6 31.4c1.2-1.1 2.6-1.8 4.2-2.1 1.6.3 3 .9 4.2 2.1" stroke="#A8782A" stroke-width="2" stroke-linecap="round"/>
</svg>
